HIERARCHY
ROOT ui
{
	 OFFSET 0 0 0
	 CHANNELS 3 XPosition YPosition Z Position
	 EndSite
	 {
	 OFFSET 0 -1 0
	 }
}
ROOT li
{
	 OFFSET 0 0 0
	 CHANNELS 3 XPosition YPosition Z Position
	 EndSite
	 {
	 OFFSET 0 -1 0
	 }
}
ROOT ul
{
	 OFFSET 0 0 0
	 CHANNELS 3 XPosition YPosition Z Position
	 EndSite
	 {
	 OFFSET 0 -1 0
	 }
}
ROOT ll
{
	 OFFSET 0 0 0
	 CHANNELS 3 XPosition YPosition Z Position
	 EndSite
	 {
	 OFFSET 0 -1 0
	 }
}
ROOT tt
{
	 OFFSET 0 0 0
	 CHANNELS 3 XPosition YPosition Z Position
	 EndSite
	 {
	 OFFSET 0 -1 0
	 }
}
ROOT tb
{
	 OFFSET 0 0 0
	 CHANNELS 3 XPosition YPosition Z Position
	 EndSite
	 {
	 OFFSET 0 -1 0
	 }
}
ROOT td
{
	 OFFSET 0 0 0
	 CHANNELS 3 XPosition YPosition Z Position
	 EndSite
	 {
	 OFFSET 0 -1 0
	 }
}
ROOT v
{
	 OFFSET 0 0 0
	 CHANNELS 3 XPosition YPosition Z Position
	 EndSite
	 {
	 OFFSET 0 -1 0
	 }
}
ROOT bn
{
	 OFFSET 0 0 0
	 CHANNELS 3 XPosition YPosition Z Position
	 EndSite
	 {
	 OFFSET 0 -1 0
	 }
}
MOTION
Frames: 27
Frame Time: 0.002
0.008384661674499512	-0.001989848971366882	0		0.5989757690429688	-2.712345458984375	0		-1.0209336547851562	0.11577616882324218	0		-0.5282031860351563	-3.04213427734375	0		1.325874267578125	-1.352310302734375	0		2.57627294921875	-0.4863443908691406	0		3.93746484375	0.4959395751953125	0		6.00892138671875	0.5752482299804688	0		-0.05905086135864258	5.98174267578125	0		
0.009177483558654786	-0.002430108070373535	0		0.597792724609375	-2.714742919921875	0		-1.0251884765625	0.11239199066162109	0		-0.5555140991210937	-3.053156005859375	0		1.2676552734375	-1.3548218994140624	0		2.584860595703125	-0.5008536682128907	0		3.929141845703125	0.48871664428710937	0		6.01482421875	0.5828511962890625	0		-0.024290559768676757	5.98678076171875	0		
-0.039899654388427734	0.001898514986038208	0		0.585668701171875	-2.7169677734375	0		-1.0124885864257813	0.10175709533691406	0		-0.5087762756347656	-3.06530126953125	0		1.26853564453125	-1.3552333984375	0		2.5831611328125	-0.5382064819335938	0		3.942498779296875	0.45615859985351564	0		6.016654296875	0.5815104370117188	0		-0.0527073860168457	5.9757900390625	0		
0.01892891502380371	-0.004416938781738281	0		0.6146209106445313	-2.71781640625	0		-1.0234247436523438	0.11149163055419922	0		-0.5458259887695313	-3.066160888671875	0		1.2635765380859374	-1.3485531005859375	0		2.63116748046875	-0.5333130493164062	0		3.9353125	0.4499140625	0		6.0306767578125	0.5889775390625	0		-0.051892345428466796	5.9753583984375	0		
0.011906573295593262	-0.0037247579097747802	0		0.600653564453125	-2.716009033203125	0		-1.0315858154296875	0.10318513488769532	0		-0.52785302734375	-3.068857421875	0		1.3333360595703125	-1.364014404296875	0		2.606758544921875	-0.5583214111328125	0		3.93988623046875	0.4244826354980469	0		6.0316298828125	0.5886342163085938	0		-0.051016654968261715	5.974927734375	0		
0.012911706924438477	-0.00415507698059082	0		0.599647705078125	-2.719401123046875	0		-1.0346424560546874	0.09880292510986328	0		-0.5648045654296875	-3.068716064453125	0		1.2604736328125	-1.3563023681640625	0		2.614556640625	-0.57282373046875	0		3.924491943359375	0.3983487243652344	0		6.02462841796875	0.5884020385742188	0		-0.020923315048217775	5.9850537109375	0		
-0.03904144287109375	-0.0037806150913238528	0		0.608550537109375	-2.73094677734375	0		-1.0367850341796876	0.08640650939941406	0		-0.512131103515625	-3.095942138671875	0		1.3282630615234374	-1.3747373046875	0		2.617177734375	-0.6012535400390625	0		3.934131591796875	0.3718268432617188	0		6.0305400390625	0.5799624633789062	0		-0.04911353302001953	5.97406396484375	0		
0.010082082748413086	-9.442170262336731E-4	0		0.6137210083007812	-2.726435302734375	0		-1.0297943115234376	0.08087264251708984	0		-0.5789031372070312	-3.087347412109375	0		1.2664736328125	-1.36620068359375	0		2.6290986328125	-0.6118270874023437	0		3.910198974609375	0.371812255859375	0		6.0398447265625	0.59546484375	0		-0.04810371780395508	5.97363037109375	0		
0.014232083320617676	0.002576353073120117	0		0.6148336791992187	-2.726863525390625	0		-1.03968896484375	0.08159745025634765	0		-0.4749664001464844	-3.100349609375	0		1.46035498046875	-1.3825540771484375	0		2.657718994140625	-0.6436600952148438	0		3.941491943359375	0.31894692993164064	0		6.0409296875	0.59508251953125	0		-0.04706474304199219	5.97319677734375	0		
0.017215179443359374	-0.0058856639862060545	0		0.6118829345703125	-2.732230224609375	0		-1.045826904296875	0.06526532745361328	0		-0.533907958984375	-3.1048740234375	0		1.465332763671875	-1.392035888671875	0		2.655768310546875	-0.64802734375	0		3.952198486328125	0.2923941650390625	0		6.04202978515625	0.5946939697265625	0		-0.0460035400390625	5.972763671875	0		
0.013387873649597168	-0.0022405319213867187	0		0.6031494140625	-2.723506103515625	0		-0.9778451538085937	0.05581219863891602	0		-0.47576824951171875	-3.105173095703125	0		1.47030078125	-1.4025164794921876	0		2.692424072265625	-0.67898388671875	0		3.953125732421875	0.279990234375	0		6.0390166015625	0.586363525390625	0		-0.0498536148071289	5.977408203125	0		
0.014493326187133788	-0.0026665620803833006	0		0.5861509399414062	-2.73165478515625	0		-1.0608365478515625	0.049655937194824216	0		-0.5316538696289063	-3.10573681640625	0		1.47830712890625	-1.4100396728515625	0		2.687412841796875	-0.6873027954101563	0		3.959728271484375	0.246499267578125	0		6.04423974609375	0.5939100341796875	0		-0.014694878578186035	5.98246533203125	0		
0.023560468673706054	-0.00420669412612915	0		0.6193054809570312	-2.728556396484375	0		-1.0548299560546874	0.04415612411499024	0		-0.516662109375	-3.1133701171875	0		1.486290771484375	-1.4175562744140624	0		2.742947265625	-0.7245377807617187	0		3.961506591796875	0.22608819580078124	0		6.0501826171875	0.5844479370117187	0		-0.04280657577514648	5.9714873046875	0		
-0.029255624771118163	0.005202836036682129	0		0.5855767822265625	-2.7144326171875	0		-1.0578341064453125	0.040803436279296876	0		-0.522376953125	-3.0986767578125	0		1.487339111328125	-1.4179571533203126	0		2.747067626953125	-0.7199783935546875	0		3.976226806640625	0.2044899444580078	0		6.05535693359375	0.5930084228515625	0		0.00745665979385376	5.987333984375	0		
0.020655673980712892	6.639800220727921E-5	0		0.6213514404296875	-2.729352783203125	0		-1.0740821533203124	0.02566366767883301	0		-0.5264745483398438	-3.104996826171875	0		1.487081298828125	-1.434326904296875	0		2.743730712890625	-0.7412958984375	0		4.0028212890625	0.17872418212890626	0		6.05219580078125	0.5837057495117187	0		-0.045770793914794924	5.975759765625	0		
-0.05250351333618164	-0.0031876959800720213	0		0.6103494262695313	-2.723544677734375	0		-1.0863544921875	0.014480880737304688	0		-0.4906165771484375	-3.1089052734375	0		1.491828857421875	-1.44475537109375	0		2.755489501953125	-0.75082470703125	0		4.018196533203125	0.14414352416992188	0		6.0530859375	0.5833580932617187	0		-0.03998219680786133	5.97030859375	0		
0.02233831024169922	-6.638969779014588E-4	0		0.6210286254882813	-2.732047119140625	0		-1.0847012939453125	0.00510757303237915	0		-0.5366261596679688	-3.09655126953125	0		1.50132080078125	-1.4652374267578125	0		2.80077734375	-0.7848451538085938	0		4.03346875	0.10958318328857422	0		6.053873046875	0.5830299072265624	0		-0.04414211654663086	5.97502880859375	0		
-0.055965999603271484	0.0012034250497817993	0		0.5698228759765624	-2.7245869140625	0		-1.08402978515625	0.004774167060852051	0		-0.5220501098632813	-3.10409375	0		1.5040433349609375	-1.46259130859375	0		2.8094814453125	-0.7832846069335937	0		4.0439267578125	0.09512010192871094	0		6.0545419921875	0.5827246704101563	0		-0.04349419403076172	5.97469970703125	0		
0.027596961975097655	0.0016463999748229981	0		0.6263228759765626	-2.728732421875	0		-1.0966527099609376	-0.00633141279220581	0		-0.5282841186523437	-3.090291015625	0		1.5025455322265624	-1.4658551025390625	0		2.827691162109375	-0.805844482421875	0		4.074222900390625	0.0783822250366211	0		6.0470830078125	0.5825675048828125	0		-0.008886271476745606	5.97988427734375	0		
-0.06488057708740234	0.00978671646118164	0		0.6148447875976563	-2.72181640625	0		-1.109411865234375	-0.01740371322631836	0		-0.5166728515625	-3.0777275390625	0		1.5584803466796875	-1.49796142578125	0		2.8610654296875	-0.8086016235351563	0		4.09820166015625	0.04976828384399414	0		6.055486328125	0.5821988525390625	0		-0.04258649826049805	5.9741328125	0		
0.024224483489990234	-0.0017904039621353149	0		0.6400407104492187	-2.72742333984375	0		-1.117250244140625	-0.02451599884033203	0		-0.5513479614257812	-3.0744306640625	0		1.558751220703125	-1.49818798828125	0		2.8900888671875	-0.8252615966796875	0		4.12025390625	0.035217605590820315	0		6.047751953125	0.5821062622070312	0		-0.04232178497314453	5.9749013671875	0		
-0.05462213897705078	2.1184900403022766E-4	0		0.6230880126953126	-2.733357177734375	0		-1.118423583984375	-0.044694637298583986	0		-0.515245361328125	-3.077169921875	0		1.586760009765625	-1.506800048828125	0		2.89022021484375	-0.8254473876953125	0		4.147046875	0.01262882137298584	0		6.0478798828125	0.581928466796875	0		-0.042207820892333985	5.9747080078125	0		
0.01548893165588379	0.006997576236724853	0		0.6271525268554687	-2.729570556640625	0		-1.112501708984375	-0.04994155883789062	0		-0.5749608154296875	-3.05841943359375	0		1.5935943603515625	-1.518054931640625	0		2.926928466796875	-0.84515234375	0		4.16171044921875	-0.009739922523498536	0		6.0519970703125	0.5897271728515625	0		-0.02215049934387207	5.9792509765625	0		
-0.012676239013671875	0.00430739688873291	0		0.6301112060546875	-2.724729248046875	0		-1.110745849609375	-0.05808765411376953	0		-0.49807034301757813	-3.058699951171875	0		1.64336328125	-1.5259210205078124	0		2.977013671875	-0.8320177001953125	0		4.20352197265625	-0.014479293823242187	0		6.06475048828125	0.581431396484375	0		-0.0374521369934082	5.96836474609375	0		
0.023996932983398438	-0.0023259398937225343	0		0.6169481811523437	-2.72060595703125	0		-1.1400498046875	-0.06272551727294921	0		-0.541062744140625	-3.043126708984375	0		1.64313525390625	-1.5259913330078125	0		2.962619140625	-0.84287158203125	0		4.22400048828125	-0.033858661651611326	0		6.04751904296875	0.5816292724609375	0		-0.00853571319580078	5.9788505859375	0		
-0.03818821716308594	0.007575311183929443	0		0.6145972290039062	-2.722609130859375	0		-1.064704345703125	-0.08491102600097657	0		-0.5122197265625	-3.032603515625	0		1.6655362548828125	-1.5443680419921875	0		2.995259033203125	-0.8453977661132812	0		4.25842626953125	-0.050410003662109376	0		6.04718896484375	0.5816104125976562	0		-0.04296729278564453	5.973330078125	0		
0.0232563533782959	-0.002359260082244873	0		0.6240560913085937	-2.73175537109375	0		-1.15021240234375	-0.09062628936767578	0		-0.5424832153320313	-3.023150390625	0		1.6791573486328124	-1.5425728759765625	0		3.00662109375	-0.86056640625	0		4.26290771484375	-0.057469867706298826	0		6.0506533203125	0.5735712280273437	0		-0.043397724151611326	5.97333154296875	0		
